<?xml version="1.0" encoding="utf-8"?>
<!-- Generator: Adobe Illustrator 22.0.1, SVG Export Plug-In . SVG Version: 6.00 Build 0)  -->
<svg version="1.1" id="Layer_1" xmlns="http://www.w3.org/2000/svg" xmlns:xlink="http://www.w3.org/1999/xlink" x="0px" y="0px"
	 viewBox="0 0 420.4 121.1" style="enable-background:new 0 0 420.4 121.1;" xml:space="preserve">
<style type="text/css">
	.st0{fill:none;}
	.st1{fill:#E50914;}
</style>
<path class="st0" d="M145.5,14.7c-5.3,0-8.6,2.9-8.6,10.4v58.6c5.7-0.5,11.4-0.9,17.1-1.2V25.1C154.1,17.5,150.8,14.7,145.5,14.7z"
	/>
<path class="st0" d="M86,15.7c-5.3,0-8.6,2.9-8.6,10.4v63.8c0,0.3,0,0.6,0,0.8c5.7-0.9,11.4-1.7,17.1-2.4V26.1
	C94.6,18.5,91.3,15.7,86,15.7z"/>
<path class="st0" d="M26.3,61.5H18V102c6.3-1.4,12.7-2.8,19-4.1l0-23.7C37,64.5,33.9,61.5,26.3,61.5z"/>
<path class="st0" d="M147.2,97.1c-0.5,0-0.9,0.1-1.4,0.1C146.3,97.2,146.8,97.2,147.2,97.1z"/>
<path class="st0" d="M34.2,35.6v-8.9c0-7.5-2.6-10.8-8.4-10.8h-8v30.8h6.5C30.4,46.7,34.2,44,34.2,35.6z"/>
<path class="st1" d="M351.4,0.9h-16.5v88.6c5.5,0.8,11,1.6,16.5,2.5V0.9z"/>
<path class="st1" d="M300.3,61.7c0-26.7,0.2-60.8,0.2-60.8h-0.1h-16.5v82.8c5.5,0.5,10.9,1,16.4,1.5C300.3,79.4,300.3,71,300.3,61.7
	z"/>
<path class="st1" d="M402.2,54.9c5.7-18.2,11.5-36.3,17.4-54.1c-5.4-0.2-10.9-0.4-16.3-0.5c-4.3,15-8.6,30-12.8,45.1
	c-4.1-15.1-8.3-30.1-12.5-45.1c-5.7,0.1-11.4,0.3-17.1,0.5c5.9,17.8,11.7,35.9,17.4,54.1c-2.9,13.5-5.9,27-8.9,40.3
	c-1.2,4.6-2.4,9.1-3.6,13.7c5.5,1.2,11,2.3,16.5,3.5c1.2-4.6,7-34.5,8.6-45c1.6,11.1,7.1,43.5,8.3,48.6c6.1,1.3,12.3,2.7,18.4,4
	c-1.4-5.1-2.7-10.2-4.1-15.4C409.6,88.2,405.9,71.6,402.2,54.9z"/>
<path class="st1" d="M334.9,89.4v14.3c5.5,0.8,11,1.7,16.5,2.6V92C345.9,91.1,340.4,90.2,334.9,89.4z"/>
<path class="st1" d="M300.3,85.2c0,0-10.9-1.1-16.4-1.5v7.7v6.5c14.7,1.2,29.3,2.8,43.7,4.8V89.2L300.3,85.2z"/>
<path class="st1" d="M199.8,80.7V0.9h-16.5v80.2v14.2c9-0.3,18-0.4,27.1-0.4c5.6,0,11.1,0.1,16.6,0.2V80.7H199.8z"/>
<path class="st1" d="M145.5-0.3c-16.2,0-25.1,9.6-25.1,26.4v59.1v0.6l0,0.2c0,7.2,6.2,12.9,13.3,12.2c4-0.3,8-0.7,12-1
	c0.5,0,0.9-0.1,1.4-0.1c4.5-0.3,9-0.6,13.5-0.9c5.5-0.3,9.9-4.8,9.9-10.3c0,0,0-0.1,0-0.1v-4.2V26.1C170.6,9.3,161.8-0.3,145.5-0.3z
	 M142.6,83.2c-3,0.2-5.6-2.1-5.6-5.2v-53c0-7.5,3.3-10.4,8.6-10.4s8.6,2.9,8.6,10.4v53.6c0,2.1-1.6,3.9-3.8,4
	C147.8,82.9,145.2,83,142.6,83.2z"/>
<path class="st1" d="M86,0.7c-16.2,0-25.1,9.6-25.1,26.4v61.7c0,1.6,0.1,3.1,0.2,4.6l0,0.2c0.8,7.4,7.6,12.7,15,11.6
	c8.3-1.3,16.7-2.4,25.1-3.4c5.4-0.7,9.5-5.1,9.8-10.5c0-0.8,0.1-1.6,0.1-2.4v-2.6V27.1C111.1,10.3,102.3,0.7,86,0.7z M84.8,89.6
	c-3.9,0.6-7.3-2.4-7.3-6.3c0-17,0-57.2,0-57.2c0-7.5,3.3-10.4,8.6-10.4c5.3,0,8.6,2.9,8.6,10.4v59.6c0,1.4-1.1,2.7-2.5,2.9
	L84.8,89.6z"/>
<path class="st1" d="M39.9,52.9c7.3-3.5,10.6-10.3,10.6-21.2c0-2.3,0-4.5,0-6.8C50.7,8.8,43.4,0.3,26.2,0.3
	c-8.3,0-16.6,0.2-24.9,0.6c0,4.3,0.1,8.6,0.1,12.9c0.2,28.8,0.2,57.5,0,86.3c0,6.8-0.1,13.7-0.1,20.5c14.8-3.1,29.8-6.5,44.9-9.9
	c3.5-0.8,6.1-3.9,6.1-7.5c0,0,0,0,0-0.1c0-2.7,0-5.4,0-8.2c0-6.5-0.1-12.9-0.1-19.4C52.1,64.4,48.7,56.5,39.9,52.9z M17.9,15.5
	c2.6,0,5.3-0.1,7.9-0.1c5.8,0,8.4,3.4,8.4,11c0,3,0,6,0,8.9c0,8.5-3.7,11.2-9.8,11.2c-2.1,0-4.3,0-6.4,0
	C17.9,36.2,17.9,25.8,17.9,15.5z M35.7,98.5c-5.9,1.3-11.8,2.6-17.6,3.9c0-13.6,0-27.3,0-40.9c2.8,0,5.5,0,8.3,0
	c7.4,0,10.6,3,10.6,12.9c0,7.5,0,15,0,22.5C36.9,97.7,36.4,98.4,35.7,98.5z"/>
<path class="st1" d="M280,15.9v-15h-44.7v10.8v65.2v18.2c5.9,0.1,11.7,0.3,17.5,0.6V81.5V58.6h21.3v-15h-21.3V15.9H280z"/>
</svg>
